<?xml version="1.0" encoding="UTF-8" standalone="no"?>
<svg
   xmlns:dc="http://purl.org/dc/elements/1.1/"
   xmlns:cc="http://creativecommons.org/ns#"
   xmlns:rdf="http://www.w3.org/1999/02/22-rdf-syntax-ns#"
   xmlns:svg="http://www.w3.org/2000/svg"
   xmlns="http://www.w3.org/2000/svg"
   id="svg8"
   version="1.1"
   viewBox="0 0 58.408333 103.38752"
   height="103.38752mm"
   width="58.408333mm">
  <defs
     id="defs2">
    <clipPath
       id="clipPath6295"
       clipPathUnits="userSpaceOnUse">
      <path
         id="path6297"
         d="M 55.5625,93.270834 V 196.45833 h 58.20833 v -2.64583 h -5.29166 l -5.29167,-5.29167 -5.291667,-13.22916 -2.645834,-21.16667 -5.291666,-26.45833 -5.291667,-15.875 -7.9375,-10.58334 L 63.5,95.916668 h -7.9375"
         style="fill:none;fill-rule:evenodd;stroke:#ff1717;stroke-width:0.99999994;stroke-linecap:butt;stroke-linejoin:miter;stroke-miterlimit:4;stroke-dasharray:none;stroke-opacity:1" />
    </clipPath>
  </defs>
  <metadata
     id="metadata5">
    <rdf:RDF>
      <cc:Work
         rdf:about="">
        <dc:format>image/svg+xml</dc:format>
        <dc:type
           rdf:resource="http://purl.org/dc/dcmitype/StillImage" />
        <dc:title></dc:title>
      </cc:Work>
    </rdf:RDF>
  </metadata>
  <g
     transform="translate(-55.4625,-93.170821)"
     id="layer1">
    <g
       style="stroke-width:0.86781877;stroke:#8c8c8c;stroke-opacity:1"
       transform="matrix(1.1618497,0,0,1.1428573,-10.705683,-15.214302)"
       id="g4752">
      <path
         style="fill:none;fill-rule:evenodd;stroke:#8c8c8c;stroke-width:0.86781877;stroke-linecap:butt;stroke-linejoin:miter;stroke-miterlimit:4;stroke-dasharray:none;stroke-opacity:1"
         d="m 58.208333,106.5 c 5.291667,0 7.9375,18.52083 7.9375,18.52083 0,0 2.645834,-18.52083 7.9375,-18.52083"
         id="path4545" />
      <circle
         style="opacity:1;fill:none;fill-opacity:1;stroke:#8c8c8c;stroke-width:0.86781877;stroke-miterlimit:4;stroke-dasharray:none;stroke-opacity:1"
         id="path4547"
         cx="60.381699"
         cy="114.81548"
         r="2.6458333" />
      <circle
         style="opacity:1;fill:none;fill-opacity:1;stroke:#8c8c8c;stroke-width:0.86781877;stroke-miterlimit:4;stroke-dasharray:none;stroke-opacity:1"
         id="path4547-8"
         cx="71.815475"
         cy="114.81548"
         r="2.6458333" />
      <ellipse
         ry="1.6130922"
         rx="1.5662537"
         style="opacity:1;fill:#8c8c8c;fill-opacity:1;stroke:#8c8c8c;stroke-width:0.86781877;stroke-miterlimit:4;stroke-dasharray:none;stroke-opacity:1"
         id="path4574"
         cx="60.916237"
         cy="114.99046" />
      <ellipse
         transform="matrix(0.99807983,0.06194067,-0.05982631,0.9982088,0,0)"
         ry="1.6082609"
         rx="1.6069437"
         style="opacity:1;fill:#8c8c8c;fill-opacity:1;stroke:#8c8c8c;stroke-width:0.86781979;stroke-miterlimit:4;stroke-dasharray:none;stroke-opacity:1"
         id="path4574-9"
         cx="78.055283"
         cy="110.29109" />
    </g>
    <g
       style="stroke:#8c8c8c;stroke-opacity:1"
       clip-path="url(#clipPath6295)"
       id="g6293">
      <path
         style="fill:none;fill-rule:evenodd;stroke:#8c8c8c;stroke-width:1;stroke-linecap:butt;stroke-linejoin:miter;stroke-miterlimit:4;stroke-dasharray:none;stroke-opacity:1"
         d="m 89.958333,164.70833 c 0,8.48698 10.583337,8.48698 10.583337,0"
         id="path4591-0-3" />
      <path
         style="fill:none;fill-rule:evenodd;stroke:#8c8c8c;stroke-width:1;stroke-linecap:butt;stroke-linejoin:miter;stroke-miterlimit:4;stroke-dasharray:none;stroke-opacity:1"
         d="m 97.895833,188.52083 c 0,8.48698 10.583327,8.48698 10.583327,0"
         id="path4591-27" />
      <path
         style="fill:none;fill-rule:evenodd;stroke:#8c8c8c;stroke-width:1;stroke-linecap:butt;stroke-linejoin:miter;stroke-miterlimit:4;stroke-dasharray:none;stroke-opacity:1"
         d="m 58.208333,132.95833 c 0,8.48698 10.583334,8.48698 10.583334,0"
         id="path4591" />
      <path
         style="fill:none;fill-rule:evenodd;stroke:#8c8c8c;stroke-width:1;stroke-linecap:butt;stroke-linejoin:miter;stroke-miterlimit:4;stroke-dasharray:none;stroke-opacity:1"
         d="m 74.083333,132.95833 c 0,8.48698 10.583334,8.48698 10.583334,0"
         id="path4591-7" />
      <path
         style="fill:none;fill-rule:evenodd;stroke:#8c8c8c;stroke-width:1;stroke-linecap:butt;stroke-linejoin:miter;stroke-miterlimit:4;stroke-dasharray:none;stroke-opacity:1"
         d="m 66.145833,140.89583 c 0,8.48698 10.583334,8.48698 10.583334,0"
         id="path4591-5" />
      <path
         style="fill:none;fill-rule:evenodd;stroke:#8c8c8c;stroke-width:1;stroke-linecap:butt;stroke-linejoin:miter;stroke-miterlimit:4;stroke-dasharray:none;stroke-opacity:1"
         d="m 50.270833,140.89583 c 0,8.48698 10.583334,8.48698 10.583334,0"
         id="path4591-1" />
      <path
         style="fill:none;fill-rule:evenodd;stroke:#8c8c8c;stroke-width:1;stroke-linecap:butt;stroke-linejoin:miter;stroke-miterlimit:4;stroke-dasharray:none;stroke-opacity:1"
         d="m 82.020833,140.89583 c 0,8.48698 10.583334,8.48698 10.583334,0"
         id="path4591-57" />
      <path
         style="fill:none;fill-rule:evenodd;stroke:#8c8c8c;stroke-width:1;stroke-linecap:butt;stroke-linejoin:miter;stroke-miterlimit:4;stroke-dasharray:none;stroke-opacity:1"
         d="m 58.208333,148.83333 c 0,8.48698 10.583334,8.48698 10.583334,0"
         id="path4591-79" />
      <path
         style="fill:none;fill-rule:evenodd;stroke:#8c8c8c;stroke-width:1;stroke-linecap:butt;stroke-linejoin:miter;stroke-miterlimit:4;stroke-dasharray:none;stroke-opacity:1"
         d="m 74.083333,148.83333 c 0,8.48698 10.583334,8.48698 10.583334,0"
         id="path4591-6" />
      <path
         style="fill:none;fill-rule:evenodd;stroke:#8c8c8c;stroke-width:1;stroke-linecap:butt;stroke-linejoin:miter;stroke-miterlimit:4;stroke-dasharray:none;stroke-opacity:1"
         d="m 50.270833,156.77083 c 0,8.48698 10.583334,8.48698 10.583334,0"
         id="path4591-4" />
      <path
         style="fill:none;fill-rule:evenodd;stroke:#8c8c8c;stroke-width:1;stroke-linecap:butt;stroke-linejoin:miter;stroke-miterlimit:4;stroke-dasharray:none;stroke-opacity:1"
         d="m 66.145833,156.77083 c 0,8.48698 10.583334,8.48698 10.583334,0"
         id="path4591-0" />
      <path
         style="fill:none;fill-rule:evenodd;stroke:#8c8c8c;stroke-width:1;stroke-linecap:butt;stroke-linejoin:miter;stroke-miterlimit:4;stroke-dasharray:none;stroke-opacity:1"
         d="m 82.020833,156.77083 c 0,8.48698 10.583334,8.48698 10.583334,0"
         id="path4591-06" />
      <path
         style="fill:none;fill-rule:evenodd;stroke:#8c8c8c;stroke-width:1;stroke-linecap:butt;stroke-linejoin:miter;stroke-miterlimit:4;stroke-dasharray:none;stroke-opacity:1"
         d="m 74.083333,164.70833 c 0,8.48698 10.583334,8.48698 10.583334,0"
         id="path4591-2" />
      <path
         style="fill:none;fill-rule:evenodd;stroke:#8c8c8c;stroke-width:1;stroke-linecap:butt;stroke-linejoin:miter;stroke-miterlimit:4;stroke-dasharray:none;stroke-opacity:1"
         d="m 58.208333,164.70833 c 0,8.48698 10.583334,8.48698 10.583334,0"
         id="path4591-9" />
      <path
         style="fill:none;fill-rule:evenodd;stroke:#8c8c8c;stroke-width:1;stroke-linecap:butt;stroke-linejoin:miter;stroke-miterlimit:4;stroke-dasharray:none;stroke-opacity:1"
         d="m 50.270833,172.64583 c 0,8.48698 10.583334,8.48698 10.583334,0"
         id="path4591-95" />
      <path
         style="fill:none;fill-rule:evenodd;stroke:#8c8c8c;stroke-width:1;stroke-linecap:butt;stroke-linejoin:miter;stroke-miterlimit:4;stroke-dasharray:none;stroke-opacity:1"
         d="m 66.145833,172.64583 c 0,8.48698 10.583334,8.48698 10.583334,0"
         id="path4591-10" />
      <path
         style="fill:none;fill-rule:evenodd;stroke:#8c8c8c;stroke-width:1;stroke-linecap:butt;stroke-linejoin:miter;stroke-miterlimit:4;stroke-dasharray:none;stroke-opacity:1"
         d="m 82.020833,172.64583 c 0,8.48698 10.583334,8.48698 10.583334,0"
         id="path4591-02" />
      <path
         style="fill:none;fill-rule:evenodd;stroke:#8c8c8c;stroke-width:1;stroke-linecap:butt;stroke-linejoin:miter;stroke-miterlimit:4;stroke-dasharray:none;stroke-opacity:1"
         d="m 58.208333,180.58333 c 0,8.48698 10.583334,8.48698 10.583334,0"
         id="path4591-94" />
      <path
         style="fill:none;fill-rule:evenodd;stroke:#8c8c8c;stroke-width:1;stroke-linecap:butt;stroke-linejoin:miter;stroke-miterlimit:4;stroke-dasharray:none;stroke-opacity:1"
         d="m 74.083333,180.58333 c 0,8.48698 10.583334,8.48698 10.583334,0"
         id="path4591-8" />
      <path
         style="fill:none;fill-rule:evenodd;stroke:#8c8c8c;stroke-width:1;stroke-linecap:butt;stroke-linejoin:miter;stroke-miterlimit:4;stroke-dasharray:none;stroke-opacity:1"
         d="m 89.958333,180.58333 c 0,8.48698 10.583337,8.48698 10.583337,0"
         id="path4591-3" />
      <path
         style="fill:none;fill-rule:evenodd;stroke:#8c8c8c;stroke-width:1;stroke-linecap:butt;stroke-linejoin:miter;stroke-miterlimit:4;stroke-dasharray:none;stroke-opacity:1"
         d="m 66.145833,188.52083 c 0,8.48698 10.583334,8.48698 10.583334,0"
         id="path4591-48" />
      <path
         style="fill:none;fill-rule:evenodd;stroke:#8c8c8c;stroke-width:1;stroke-linecap:butt;stroke-linejoin:miter;stroke-miterlimit:4;stroke-dasharray:none;stroke-opacity:1"
         d="m 50.270833,188.52083 c 0,8.48698 10.583334,8.48698 10.583334,0"
         id="path4591-15" />
      <path
         style="fill:none;fill-rule:evenodd;stroke:#8c8c8c;stroke-width:1;stroke-linecap:butt;stroke-linejoin:miter;stroke-miterlimit:4;stroke-dasharray:none;stroke-opacity:1"
         d="m 82.020833,188.52083 c 0,8.48698 10.583334,8.48698 10.583334,0"
         id="path4591-38" />
    </g>
    <path
       id="path4541"
       d="m 55.5625,95.916667 c 58.20833,0 23.8125,97.895833 58.20833,97.895833"
       style="fill:none;fill-opacity:1;fill-rule:evenodd;stroke:#000000;stroke-width:4;stroke-linecap:butt;stroke-linejoin:miter;stroke-miterlimit:4;stroke-dasharray:none;stroke-opacity:1" />
    <path
       id="path4543"
       d="M 93.927083,147.51042 C 78.052084,163.38542 76.729167,193.8125 55.5625,193.8125"
       style="fill:none;fill-opacity:1;fill-rule:evenodd;stroke:#000000;stroke-width:4;stroke-linecap:butt;stroke-linejoin:miter;stroke-miterlimit:4;stroke-dasharray:none;stroke-opacity:1" />
  </g>
</svg>
